<?xml version="1.0" encoding="UTF-8"?>
<svg id="a" data-name="Layer 1" xmlns="http://www.w3.org/2000/svg" width="2469.634" height="1193.257" viewBox="0 0 2469.634 1193.257" fill="#ff3000">
  <g>
    <path d="M1168.717,338.069c0,6.619,3.12,9.928,9.376,9.928,3.309,0,5.791-.828,7.446-2.482,1.655-1.655,3.215-3.766,4.688-6.343,4.042-6.248,8.273-12.22,12.686-17.925,4.413-5.697,9.558-10.755,15.444-15.168,5.877-4.413,12.772-7.903,20.684-10.479,7.902-2.568,17.184-3.861,27.854-3.861,17.279,0,31.713,2.301,43.297,6.895,11.582,4.602,20.77,10.85,27.578,18.753,6.799,7.911,11.582,17.288,14.34,28.129,2.758,10.85,4.137,22.527,4.137,35.023v175.947c0,11.031-5.516,16.547-16.547,16.547h-121.342c-11.031,0-16.547-5.516-16.547-16.547v-131.822c0-14.703-5.154-22.062-15.443-22.062-5.886,0-10.299,2.396-13.238,7.17-2.947,4.783-4.412,10.85-4.412,18.201v128.513c0,11.031-5.516,16.547-16.547,16.547h-121.343c-11.031,0-16.546-5.516-16.546-16.547V186.942c0-11.031,5.516-16.547,16.546-16.547h121.343c11.031,0,16.547,5.516,16.547,16.547v151.126Z"/>
    <path d="M1561.976,464.927c4.412-6.981,9.376-10.48,14.892-10.48h124.652c11.764,0,16.547,5.516,14.34,16.547-3.68,18.753-10.574,34.938-20.683,48.537-10.118,13.608-22.804,24.734-38.058,33.369-15.263,8.644-32.456,15.082-51.57,19.305-19.124,4.223-39.351,6.343-60.672,6.343-23.906,0-46.426-2.853-67.565-8.549-21.148-5.696-39.531-14.427-55.156-26.199-15.633-11.764-28.043-26.656-37.229-44.676-9.195-18.012-13.789-39.341-13.789-63.98s4.412-45.96,13.237-63.981c8.825-18.012,20.864-32.904,36.127-44.676,15.254-11.764,33.094-20.494,53.501-26.199,20.408-5.696,42.194-8.549,65.359-8.549,22.062,0,42.832,2.482,62.326,7.446,19.485,4.964,36.679,12.781,51.57,23.441,14.893,10.669,27.113,24.363,36.679,41.091,9.558,16.736,15.254,36.868,17.099,60.396,1.103,11.031-4.231,16.547-15.995,16.547h-151.679c-5.886,0-10.117,1.474-12.686,4.412-2.577,2.948-2.947,6.989-1.104,12.134,3.672,11.031,10.109,16.547,19.305,16.547,7.722,0,13.419-2.939,17.099-8.825ZM1545.429,385.503c-5.516,0-9.747,1.568-12.686,4.688-2.947,3.128-4.413,6.713-4.413,10.755,0,3.31,1.189,6.162,3.586,8.549,2.387,2.396,6.704,3.585,12.961,3.585s10.661-1.189,13.237-3.585c2.568-2.387,3.861-5.24,3.861-8.549,0-4.412-1.198-8.083-3.585-11.031-2.396-2.938-6.714-4.412-12.962-4.412Z"/>
    <path d="M1729.094,186.942c0-11.031,5.516-16.547,16.547-16.547h121.343c11.03,0,16.546,5.516,16.546,16.547v369.543c0,11.031-5.516,16.547-16.546,16.547h-121.343c-11.031,0-16.547-5.516-16.547-16.547V186.942Z"/>
    <path d="M1905.587,186.942c0-11.031,5.516-16.547,16.547-16.547h121.343c11.03,0,16.546,5.516,16.546,16.547v369.543c0,11.031-5.516,16.547-16.546,16.547h-121.343c-11.031,0-16.547-5.516-16.547-16.547V186.942Z"/>
    <path d="M2073.814,435.143c0-24.63,4.499-45.96,13.513-63.981,9.006-18.012,21.235-32.904,36.679-44.676,15.443-11.764,33.551-20.494,54.328-26.199,20.771-5.696,42.927-8.549,66.463-8.549s45.685,2.853,66.463,8.549c20.77,5.705,38.885,14.436,54.328,26.199,15.443,11.772,27.664,26.664,36.679,44.676,9.006,18.021,13.514,39.351,13.514,63.981s-4.508,45.969-13.514,63.98c-9.015,18.021-21.235,32.913-36.679,44.676-15.443,11.772-33.559,20.502-54.328,26.199-20.778,5.697-42.936,8.549-66.463,8.549s-45.692-2.853-66.463-8.549c-20.777-5.696-38.885-14.427-54.328-26.199-15.443-11.764-27.673-26.656-36.679-44.676-9.014-18.012-13.513-39.341-13.513-63.98ZM2225.491,435.143c0,13.237,1.836,22.984,5.516,29.232,3.672,6.257,8.273,9.376,13.789,9.376s10.109-3.12,13.789-9.376c3.672-6.248,5.516-15.995,5.516-29.232,0-13.97-1.844-23.898-5.516-29.784-3.68-5.877-8.273-8.825-13.789-8.825s-10.117,2.947-13.789,8.825c-3.68,5.886-5.516,15.814-5.516,29.784Z"/>
  </g>
  <g>
    <path d="M1048.477,725.075c6.619,1.104,10.661-.913,12.134-6.067,1.465-5.516-.551-9.187-6.067-11.031-13.979-5.145-24.734-12.314-32.266-21.51-7.541-9.188-11.307-20.408-11.307-33.646,0-8.826,1.836-17.185,5.516-25.096,3.671-7.903,9.006-14.703,15.995-20.408,6.981-5.697,15.444-10.29,25.372-13.789,9.928-3.49,21.14-5.24,33.645-5.24s23.717,1.75,33.645,5.24c9.928,3.499,18.382,8.092,25.372,13.789,6.981,5.705,12.315,12.505,15.995,20.408,3.671,7.911,5.516,16.271,5.516,25.096,0,13.237-3.774,24.458-11.307,33.646-7.541,9.195-18.296,16.365-32.266,21.51-5.516,1.845-7.541,5.516-6.067,11.031,1.836,5.154,5.877,7.171,12.134,6.067l17.65-2.206c11.031-1.836,16.547,2.947,16.547,14.341v243.236c0,27.578-2.948,51.105-8.825,70.6-5.886,19.485-15.082,35.386-27.578,47.709-12.505,12.315-28.595,21.321-48.261,27.026-19.675,5.697-43.297,8.55-70.875,8.55h-60.671c-11.031,0-16.547-5.516-16.547-16.547v-77.218c0-11.031,5.516-16.547,16.547-16.547h21.511c13.979,0,24.182-3.956,30.611-11.858,6.429-7.912,9.652-20.494,9.652-37.782v-237.169c0-11.394,5.516-16.177,16.546-14.341l17.65,2.206Z"/>
    <path d="M1386.026,955.626c-.369-6.618-3.498-9.928-9.375-9.928-2.947,0-5.24.827-6.895,2.481-1.656,1.655-3.225,3.775-4.689,6.344-7.721,12.505-18.295,23.535-31.715,33.093-13.426,9.558-30.98,14.341-52.674,14.341-17.648,0-32.359-2.301-44.123-6.895-11.773-4.594-21.149-10.937-28.13-19.028-6.989-8.084-11.954-17.461-14.892-28.13-2.948-10.66-4.413-22.243-4.413-34.748v-175.946c0-11.031,5.516-16.547,16.547-16.547h121.343c11.031,0,16.547,5.516,16.547,16.547v131.821c0,14.712,4.773,22.062,14.34,22.062,5.145,0,9.102-2.387,11.859-7.17,2.758-4.774,4.137-10.842,4.137-18.201v-128.513c0-11.031,5.516-16.547,16.547-16.547h121.342c11.031,0,16.547,5.516,16.547,16.547v242.685c0,11.031-5.516,16.547-16.547,16.547h-104.797c-11.031,0-17.098-5.516-18.201-16.547l-2.758-24.269Z"/>
    <path d="M1692.688,761.478c.732,6.618,3.86,9.928,9.376,9.928,3.31,0,5.792-.827,7.446-2.482,1.654-1.654,3.215-3.766,4.688-6.343,7.722-12.496,18.382-23.527,31.99-33.094,13.6-9.557,31.438-14.34,53.501-14.34,18.012,0,32.999,2.301,44.952,6.895,11.944,4.602,21.416,10.85,28.405,18.753,6.98,7.911,11.944,17.288,14.892,28.129,2.938,10.851,4.412,22.528,4.412,35.024v175.946c0,11.031-5.515,16.547-16.546,16.547h-121.343c-11.031,0-16.547-5.516-16.547-16.547v-131.822c0-14.702-5.153-22.062-15.443-22.062-5.887,0-10.299,2.396-13.237,7.171-2.947,4.783-4.413,10.85-4.413,18.201v128.513c0,11.031-5.516,16.547-16.546,16.547h-121.343c-11.031,0-16.547-5.516-16.547-16.547v-242.685c0-11.031,5.516-16.547,16.547-16.547h104.796c11.031,0,17.098,5.516,18.201,16.547l2.758,24.269Z"/>
    <path d="M1946.954,725.075c6.619,1.104,10.661-.913,12.135-6.067,1.465-5.516-.552-9.187-6.067-11.031-13.979-5.145-24.734-12.314-32.267-21.51-7.54-9.188-11.307-20.408-11.307-33.646,0-8.826,1.836-17.185,5.516-25.096,3.671-7.903,9.006-14.703,15.995-20.408,6.98-5.697,15.443-10.29,25.372-13.789,9.928-3.49,21.14-5.24,33.645-5.24s23.717,1.75,33.646,5.24c9.928,3.499,18.382,8.092,25.371,13.789,6.98,5.705,12.315,12.505,15.995,20.408,3.672,7.911,5.516,16.271,5.516,25.096,0,13.237-3.774,24.458-11.307,33.646-7.541,9.195-18.296,16.365-32.267,21.51-5.516,1.845-7.54,5.516-6.066,11.031,1.835,5.154,5.877,7.171,12.134,6.067l17.65-2.206c11.03-1.836,16.546,2.947,16.546,14.341v242.685c0,11.031-5.516,16.547-16.546,16.547h-121.343c-11.031,0-16.547-5.516-16.547-16.547v-242.685c0-11.394,5.516-16.177,16.547-14.341l17.649,2.206Z"/>
  </g>
  <g id="b" data-name="gJz2Hf">
    <path d="M850.389,764.611c-65.954,135.99-200.055,225.6-350.045,233.785-12.868.702-23.707-9.528-23.705-22.415l.024-160.356c.002-13.518-11.86-23.863-25.282-22.254-95.511,11.446-171.644,89.127-180.755,185.495-1.085,11.477-10.768,20.218-22.297,20.215l-163.157-.038c-12.828-.003-23.091-10.754-22.41-23.564,5.349-100.534,47.932-196.235,119.06-268.056,72.749-73.761,170.471-117.512,273.579-122.7,11.892-.598,21.199-10.461,21.198-22.368l-.021-161.251c-.002-13.359-11.63-23.892-24.894-22.297-43.677,5.251-84.143,24.273-116.216,54.204-37.12,34.659-60.079,81.357-64.852,131.509-1.09,11.452-10.781,20.156-22.285,20.157l-163.16.012c-12.827,0-23.092-10.745-22.417-23.555,5.307-100.779,48.08-196.839,119.617-268.796,72.112-72.769,168.656-116.448,270.942-121.969,12.827-.692,23.602,9.571,23.601,22.417l-.021,160.346c-.002,13.516,11.856,23.858,25.276,22.254,95.525-11.415,171.664-89.198,180.756-185.516,1.084-11.481,10.77-20.226,22.302-20.221l163.168.076c12.838.006,23.098,10.776,22.403,23.596-5.492,101.317-48.415,197.114-120.061,269.002-72.649,73.207-169.974,116.549-272.593,121.723-11.893.6-21.202,10.459-21.201,22.367l.018,161.249c.001,13.359,11.63,23.889,24.894,22.299,43.968-5.27,85.073-24.661,117.334-55.279,36.321-34.449,58.935-80.397,63.716-130.291,1.097-11.45,10.785-20.152,22.288-20.151l163.187.012c12.852,0,23.106,10.788,22.413,23.622-2.938,54.405-16.663,107.34-40.403,156.735Z"/>
  </g>
</svg>