<svg xmlns="http://www.w3.org/2000/svg" width="33.317" height="42.438" viewBox="0 0 33.317 42.438">
  <path id="svg_bg_7" d="M3383.046,692a6.491,6.491,0,0,0-.983-.61c-.582-.309-7.945-2.773-7.945-2.773s-1.094-9.5-2.649-14.035c-1.162-3.391-4.029-4.149-5.371-.415a47.071,47.071,0,0,0-1.937,7.078c-.185.972-.262,1.974-.381,2.954-.092.745-.413,3.451-.413,3.451s-4.553.784-5.757,1.094c-1.839.472-4.775,1.132-6.191,2.473-1.689,1.6-.283,3.558,1.375,4.383a29.679,29.679,0,0,0,5.608,2.115c.393.1,5.073.909,5.073.909s.12,1.2.2,1.78a50,50,0,0,0,2.7,11.48c1.271,3.468,3.756,2.577,4.817-.414a49.667,49.667,0,0,0,1.888-6.849c.09-.452.88-6.262.88-6.262a51.4,51.4,0,0,0,8.246-2.5c1.243-.6,2.4-1.946,1.371-3.325A2.825,2.825,0,0,0,3383.046,692Z" transform="translate(-3350.654 -671.681)" fill="#f9eede"/>
</svg>
