<svg xmlns="http://www.w3.org/2000/svg" width="57.769" height="77.271" viewBox="0 0 57.769 77.271">
  <g id="svg_bg_3" transform="translate(-541.446 -859.49)" opacity="0.58">
    <path id="Контур_41748" data-name="Контур 41748" d="M.057,3.311C.525-.094,5.048-1.076,7.3,1.324c3,3.2,4,11.174,4.684,15.345.323,1.979.983,5.312-.285,7.087A2.989,2.989,0,0,1,6.63,23.69C3.7,18.681-.33,9.593.022,3.682.029,3.556.04,3.432.057,3.311Z" transform="translate(548.366 870.674) rotate(-64)" fill="#ffc200"/>
    <path id="Контур_41749" data-name="Контур 41749" d="M5.191.154A12.348,12.348,0,0,1,8.884,2.1C17.25,7.8,27.454,13.157,33.993,21.05a3.293,3.293,0,0,1-3.97,5.147c-9.264-4.133-17.295-11.437-25.9-16.771A12.114,12.114,0,0,1,1.005,7C-1.557,3.875,1.121-.92,5.191.154Z" transform="translate(541.446 912.767) rotate(-64)" fill="#ffc200"/>
    <path id="Контур_41750" data-name="Контур 41750" d="M2.7.748C7.614-.473,15.22-.121,20.122,1.239c2.426.672,3.31,4.59.753,5.766C15.85,9.317,9.71,9.249,4.387,8.152,2.368,7.737.4,7.342.039,5A3.943,3.943,0,0,1,2.7.748Z" transform="translate(581.398 932.864) rotate(-64)" fill="#ffc200"/>
  </g>
</svg>
