<svg xmlns="http://www.w3.org/2000/svg" width="57.281" height="70.026" viewBox="0 0 57.281 70.026">
  <g id="svg_bg_4" transform="translate(-1136.897 -431.802)" opacity="0.58">
    <path id="Контур_41740" data-name="Контур 41740" d="M2540.327,754.195c-.5-3.622-5.308-4.666-7.7-2.114-3.192,3.408-4.256,11.884-4.982,16.32-.343,2.105-1.046,5.649.3,7.538a3.179,3.179,0,0,0,5.388-.071c3.121-5.328,7.4-14.992,7.029-21.28C2540.357,754.454,2540.345,754.323,2540.327,754.195Z" transform="translate(-1390.256 -318.87)" fill="#ffc200"/>
    <path id="Контур_41741" data-name="Контур 41741" d="M2581.521,765.964a13.138,13.138,0,0,0-3.928,2.068c-8.9,6.066-19.75,11.761-26.7,20.156a3.5,3.5,0,0,0,4.223,5.474c9.853-4.4,18.394-12.164,27.547-17.836a12.88,12.88,0,0,0,3.313-2.582C2588.7,769.922,2585.85,764.823,2581.521,765.964Z" transform="translate(-1393.447 -320.988)" fill="#ffc200"/>
    <path id="Контур_41742" data-name="Контур 41742" d="M2587,821.9c-5.221-1.3-13.31-.924-18.524.522-2.58.715-3.52,4.882-.8,6.133,5.344,2.459,11.875,2.387,17.536,1.22,2.147-.442,4.236-.862,4.624-3.355A4.193,4.193,0,0,0,2587,821.9Z" transform="translate(-1395.7 -328.731)" fill="#ffc200"/>
  </g>
</svg>
