<svg xmlns="http://www.w3.org/2000/svg" width="64.277" height="81.872" viewBox="0 0 64.277 81.872">
  <path id="svg_bg_1" d="M3413.146,710.874a12.485,12.485,0,0,0-1.9-1.178c-1.122-.6-15.328-5.35-15.328-5.35s-2.111-18.321-5.11-27.076c-2.242-6.543-7.773-8-10.362-.8a90.969,90.969,0,0,0-3.738,13.656c-.357,1.874-.505,3.808-.735,5.7-.177,1.437-.8,6.657-.8,6.657s-8.784,1.513-11.107,2.11c-3.548.911-9.212,2.184-11.944,4.771-3.259,3.086-.545,6.864,2.651,8.455a57.266,57.266,0,0,0,10.82,4.081c.758.2,9.788,1.754,9.788,1.754s.23,2.306.383,3.433a96.463,96.463,0,0,0,5.208,22.147c2.452,6.69,7.247,4.971,9.293-.8a95.858,95.858,0,0,0,3.643-13.213c.174-.872,1.7-12.081,1.7-12.081s10.88-2.389,15.908-4.827c2.4-1.162,4.632-3.754,2.644-6.415A5.446,5.446,0,0,0,3413.146,710.874Z" transform="translate(-3350.654 -671.681)" fill="#ff80aa" opacity="0.3"/>
</svg>
